<svg width="109" height="24" viewBox="0 0 109 24" fill="none" xmlns="http://www.w3.org/2000/svg">
<path fill-rule="evenodd" clip-rule="evenodd" d="M27.9387 13.6749C27.9387 13.6749 28.0859 13.667 28.1437 13.6039L28.1411 13.6065C28.1989 13.5435 28.1332 13.4226 28.1332 13.4226L27.1686 10.9467C27.1686 10.9467 27.1292 10.8337 27.0267 10.8258C26.9032 10.8153 26.8138 11.0308 26.8138 11.0308L25.3998 13.4856L25.3814 13.5724L25.3709 13.6381L25.3998 13.7038L25.4287 13.7511L25.4839 13.7879L25.5496 13.8063L25.6521 13.8273H25.8676L25.9807 13.8378L26.0937 13.8273H26.233L26.3749 13.8168H26.5536L27.9387 13.6749ZM43.9924 8.40777C47.3802 10.0163 47.6588 13.3279 46.7731 14.3135H46.7705C45.9674 15.2073 44.1627 15.4302 42.7875 15.6C41.7728 15.7253 40.9919 15.8218 41.0198 16.1376C41.0246 16.192 41.0344 16.2812 41.0473 16.3979C41.154 17.3631 41.4685 20.2076 40.8542 20.7844C40.2929 21.3114 40.2258 21.2692 39.4146 20.7587C39.2306 20.6429 39.0082 20.503 38.7331 20.3402C37.7554 19.762 37.6161 17.8907 37.6661 16.1271C35.8552 16.2795 33.9418 16.4977 33.7946 16.5371C33.7335 16.5542 33.6641 16.5676 33.5919 16.5816C33.3878 16.621 33.1612 16.6648 33.035 16.8104C32.8116 17.068 32.9377 17.4885 33.0586 17.7592C33.2058 18.0851 33.3688 18.4163 33.537 18.7291L33.5734 18.7966C33.8786 19.3618 34.2281 20.0093 34.0942 20.6714C33.9996 21.1392 33.7315 21.4047 33.2295 21.2102C32.8942 21.0792 31.5332 19.5814 30.5596 18.51L30.5596 18.51L30.5596 18.5099L30.5595 18.5098C30.0678 17.9687 29.675 17.5364 29.563 17.4438C29.2883 17.2153 28.6774 17.2753 28.3234 17.31H28.3234L28.2988 17.3124C27.5582 17.385 25.6219 17.5407 24.6808 17.6164C24.463 17.634 24.2984 17.6472 24.2144 17.6541C23.158 17.7381 23.0308 17.9336 22.4763 18.7861C22.3714 18.9474 22.2512 19.1321 22.1065 19.3441C22.0451 19.4338 21.9238 19.6563 21.7815 19.9174C21.4486 20.5281 21.0006 21.3499 20.9343 21.1787C20.8696 21.0102 20.6997 20.8422 20.5157 20.6601C20.2287 20.3762 19.9074 20.0583 19.8961 19.6516C19.8804 19.0838 20.1579 18.6597 20.3424 18.3778L20.3425 18.3777L20.3425 18.3777C20.3741 18.3294 20.4029 18.2854 20.4271 18.2455C20.611 17.9406 20.6557 17.3545 20.3114 17.2756C19.9772 17.1991 19.9946 16.7512 20.0056 16.4701L20.0065 16.4451C20.0197 16.0929 20.0722 15.7144 20.138 15.3517C20.2142 14.9259 20.3456 14.5317 20.795 14.4187C20.9718 14.3735 21.155 14.3626 21.3382 14.3516C21.5282 14.3402 21.7183 14.3289 21.9015 14.2794C22.2698 14.1794 22.4027 13.9278 22.5669 13.617L22.6059 13.5435C22.7373 13.2964 25.8755 7.20138 26.0358 6.3761C26.0989 6.05544 26.5773 5.86621 26.9321 6.13692C27.3979 6.4904 29.2314 9.61559 30.1555 11.1907C30.4201 11.6418 30.6101 11.9657 30.6722 12.0611C31.4948 13.3227 31.642 13.3542 32.5829 13.3411C32.7199 13.3395 33.7275 13.3232 35.0057 13.3025L35.0084 13.3025C35.8884 13.2883 36.8965 13.272 37.8369 13.257C37.9473 11.6222 38.1523 10.973 38.8094 10.8363C39.5164 10.6891 40.5756 11.4802 41.2563 13.1939C41.3135 13.1903 41.3739 13.1866 41.4371 13.1829C42.426 13.1236 44.0863 13.0241 44.2815 12.2188C44.7467 10.2923 34.8222 8.05032 32.8116 10.0084C31.7655 11.0255 30.0782 7.95044 30.935 7.43267C34.4543 5.30112 40.6019 6.79662 43.9924 8.40777ZM51.097 21.9015C50.022 21.297 49.7881 18.1089 49.7881 18.1089V18.1062C49.7881 18.1062 49.2335 14.403 49.2177 14.1191C48.6027 13.8721 47.8274 12.6631 47.6854 11.3831C47.441 9.17793 47.7196 7.90321 48.7552 6.81247C49.2782 6.26052 49.7539 6.61272 49.6698 7.40646C49.5883 8.17392 49.5305 9.40134 49.5436 9.88494C49.7197 13.3858 56.8661 10.6104 58.5035 8.47355C59.9517 6.61009 60.6587 6.67317 60.9031 7.52736C61.1187 8.28431 60.9715 9.66154 60.6508 10.8653C60.3985 11.8089 59.9885 12.8339 59.1474 13.4647C58.3405 14.0718 55.6571 15.5463 52.787 15.5331C53.0603 17.0838 52.8132 20.1011 52.8132 20.1011C52.4368 22.9425 51.4866 22.2042 51.1305 21.9274L51.097 21.9015ZM64.6167 18.8079C64.6351 18.524 64.6035 18.2428 64.522 18.022C64.3092 17.4543 63.7204 16.8761 63.1291 16.7657C62.5929 16.6658 61.9568 16.771 61.5232 17.1179C61.2866 17.3071 61.0317 17.612 60.9081 17.8933C60.6401 18.5135 60.6663 19.4361 61.0606 19.9854C61.7308 20.9158 63.1448 20.9158 63.9333 20.1615C64.3118 19.7988 64.5799 19.3414 64.6167 18.8079ZM86.2053 16.8551C85.0751 17.0076 83.9791 16.9787 82.9278 16.5424C82.3102 16.2874 81.7057 15.6251 81.5926 14.8471C81.456 13.9088 82.1787 12.939 82.7149 12.3371C83.4674 11.4932 84.4849 11.0752 85.4522 10.6778L85.4694 10.6708C86.5259 10.2345 87.8348 10.2318 88.7285 11.115C89.5932 11.9691 89.6904 13.3727 89.2094 14.5133C88.647 15.8485 87.4537 16.6869 86.2053 16.8551ZM92.5368 15.5173C93.7354 11.7037 91.0046 6.9675 87.3407 6.8098V6.80717C85.6113 6.73358 83.598 8.03984 82.1814 9.08065C81.0565 9.90856 79.9079 11.1333 79.1299 12.387C78.7331 13.0257 78.4439 13.9719 78.2889 14.7341C78.2576 14.8881 78.2375 15.0562 78.227 15.2324C76.9063 16.5997 75.5324 16.8961 74.8129 17.0514L74.7119 17.0733C73.6054 17.2862 72.4857 17.2862 71.734 17.16C70.9928 17.1075 69.5867 16.7185 69.1819 15.9799C68.8955 15.4569 69.1662 14.8077 69.4527 14.3451C71.0454 11.7642 73.5581 10.0479 76.691 9.89544C77.4742 9.85601 78.3232 9.76928 78.7463 9.01759C79.2877 8.05826 78.4519 7.12259 77.5557 6.7704C75.9577 6.13698 74.0548 6.76251 72.5383 7.34862C71.0401 7.92685 69.5946 8.73636 68.5696 9.9664C67.2449 11.5644 66.3697 13.7958 66.6982 15.8538C67.1687 18.7975 69.4211 21.5651 72.7669 21.2733C73.834 21.1787 74.9169 21.0052 75.9288 20.6609C76.9591 20.3087 77.8211 19.741 78.6911 18.9079C78.8147 18.7895 78.9399 18.6412 79.0639 18.4729C79.6079 19.2082 80.3675 19.7632 81.0775 20.2036C81.7083 20.5952 82.4389 20.9001 83.1354 21.0762C85.3406 21.6308 88.1502 20.9527 90.0347 19.5386C91.3121 18.5793 92.0769 16.9839 92.5368 15.5173ZM92.3321 18.172C92.4068 18.012 92.4893 17.8353 92.5713 17.5832L92.5687 17.5858C93.281 15.7854 93.9512 12.9547 94.1483 11.7037C94.2911 11.0332 94.3524 10.3366 94.4131 9.64726C94.4295 9.46114 94.4458 9.27555 94.4637 9.09115C94.4735 8.97918 94.4838 8.86849 94.4941 8.75827C94.5169 8.51404 94.5394 8.27217 94.5557 8.02406C94.5599 7.95268 94.561 7.87434 94.5622 7.79238C94.5677 7.41263 94.5743 6.95517 94.8921 6.75196C95.1812 6.56798 95.6018 6.69677 95.8961 6.8019C96.314 6.94909 96.6899 7.12518 96.9816 7.48789C97.2302 7.79793 97.3963 8.18042 97.5579 8.55256L97.5704 8.58126C97.7204 8.93144 97.8797 9.27554 98.0387 9.61934C98.0886 9.7271 98.1385 9.83483 98.188 9.94271C98.3457 10.3002 98.5008 10.655 98.6375 11.0256C98.6449 11.0461 98.6527 11.0676 98.6608 11.0899C98.8055 11.4904 99.0453 12.1539 99.4785 12.2162C99.7996 12.2599 100.014 11.9279 100.187 11.659C100.222 11.6044 100.256 11.5523 100.288 11.5065C100.95 10.5761 101.699 9.70091 102.446 8.85197C102.866 8.37888 103.308 7.93732 103.799 7.54834C104.375 7.09101 105.137 6.65472 105.873 6.69414C106.178 6.70991 106.528 6.83344 106.796 6.99114C107.082 7.15672 107.214 7.29865 107.44 7.55096C107.59 7.71793 107.694 7.93989 107.796 8.15677C107.839 8.24715 107.881 8.33666 107.926 8.42093C108.047 8.63803 108.112 8.97079 108.172 9.27482C108.201 9.41985 108.228 9.55834 108.26 9.67463C108.522 11.2753 108.522 11.7983 108.512 13.3385C108.486 13.83 108.486 14.3205 108.486 14.8108C108.486 15.3665 108.487 15.9222 108.449 16.4793L108.448 16.487C108.417 16.9339 108.386 17.3781 108.386 17.8276C108.396 18.4174 108.482 18.78 108.572 19.1589C108.649 19.4825 108.729 19.8178 108.767 20.3166L108.769 20.3374C108.792 20.6358 108.816 20.9437 108.764 21.2391C108.738 21.3837 108.709 21.5387 108.646 21.6649C108.338 22.272 107.458 22.4166 106.977 21.9829C106.572 21.6176 106.296 21.0762 106.139 20.5531C106.062 20.2844 106.006 20.1501 105.957 20.0315C105.894 19.8787 105.842 19.7518 105.768 19.3967C105.708 19.0918 105.652 18.7869 105.597 18.482L105.489 17.8381C105.468 17.7115 105.447 17.5849 105.425 17.4582C105.369 17.13 105.313 16.8014 105.263 16.4714C105.163 15.7472 105.104 15.0176 105.046 14.2901C105.005 13.7791 104.964 13.2692 104.909 12.7629C104.88 12.5053 104.809 12.1479 104.504 12.1531C104.226 12.1573 103.992 12.4664 103.799 12.7205C103.748 12.7881 103.7 12.8518 103.655 12.9048C103.489 13.1019 103.322 13.2977 103.154 13.4935C102.987 13.6893 102.819 13.8852 102.653 14.0823C102.444 14.3286 102.238 14.5797 102.034 14.8284C101.934 14.9512 101.833 15.0733 101.734 15.194C101.698 15.238 101.66 15.285 101.621 15.3341C101.183 15.8843 100.537 16.6939 99.8254 16.3006C99.4747 16.1098 99.244 15.719 99.0272 15.3517C98.9662 15.2483 98.9063 15.1468 98.8451 15.0521C98.8047 14.9883 98.7646 14.9244 98.7245 14.8606C98.5138 14.5253 98.3042 14.1918 98.0724 13.8694C98.0623 13.8552 98.0512 13.8391 98.0391 13.8216C97.8763 13.5868 97.5336 13.0923 97.2523 13.2806C97.0653 13.4067 96.9992 13.6359 96.9358 13.8557C96.9146 13.9293 96.8937 14.0019 96.8686 14.0691C96.8147 14.2078 96.7539 14.3434 96.693 14.4792C96.6143 14.6547 96.5355 14.8304 96.4717 15.0127C96.3839 15.2567 96.2898 15.4994 96.1956 15.7424C96.098 15.9941 96.0002 16.2462 95.9093 16.5003C95.6675 17.1837 95.4493 17.8749 95.2364 18.5688C95.0973 19.0216 94.9701 19.2827 94.8284 19.5732C94.7292 19.7768 94.6229 19.9948 94.5005 20.3035C94.3402 20.6951 94.0826 21.1682 93.7304 21.3889C93.2889 21.6649 92.8131 21.3364 92.5319 20.9579C92.1482 20.4427 92.001 19.7463 92.0615 19.0997C92.1057 18.657 92.2083 18.4373 92.3321 18.172Z" fill="black"/>
<path d="M16.9157 4.35496C18.0616 4.95158 19.1261 5.41679 19.6701 6.73357C20.2037 8.02932 19.105 13.4751 19.1182 17.1127C19.1182 17.2862 19.1182 17.4596 19.1155 17.6331C19.1655 18.9341 18.6556 21.473 17.5675 20.8791C17.2153 20.6872 16.6975 19.5991 16.2875 18.3717C15.6225 16.3794 16.1719 11.4592 15.6199 11.3541C14.7578 12.3975 12.4449 14.2505 11.5671 14.8235C10.0637 15.8012 9.58272 14.4502 9.31989 13.5724C8.99661 12.4974 7.74818 10.1109 7.49849 9.91381C7.30925 9.76399 7.29348 9.97688 7.25668 10.103C7.16732 10.4158 6.68897 13.7301 6.17383 15.541C5.61926 17.4833 4.30774 20.6872 3.69534 21.4415C3.08558 22.1958 0.549276 22.8398 0.039387 22.8634C-0.291778 22.9423 1.824 18.5688 2.326 16.7211C3.0409 14.8208 4.12901 10.4395 4.26831 7.50366C4.38396 5.56923 4.21575 3.7636 4.19209 3.24056C4.19209 2.53881 4.90173 2.15771 5.2986 2.0736C5.75593 1.97898 6.75468 1.795 7.77709 2.94357C8.37897 3.61904 9.30938 5.86886 9.56696 6.42606C9.88761 7.12256 11.2359 10.2713 11.4383 11.0098C12.1138 10.5209 13.1125 9.53796 14.1244 8.42882C15.2125 7.23557 16.4242 5.23544 16.5582 4.2472C16.687 4.20252 16.8053 4.29451 16.9183 4.35759" fill="#CC0000"/>
</svg>
